<svg xmlns="http://www.w3.org/2000/svg" version="1.1" xmlns:xlink="http://www.w3.org/1999/xlink" xmlns:svgjs="http://svgjs.com/svgjs" width="1440" height="560" preserveAspectRatio="none" viewBox="0 0 1440 560"><g mask="url(&quot;#SvgjsMask1025&quot;)" fill="none"><rect width="1440" height="560" x="0" y="0" fill="rgba(156, 114, 131, 0.06)"></rect><path d="M-112.09 320.55C43.12 318.8 249.47 143.55 484.01 146.95 718.55 150.35 659.16 545.27 782.06 604.89" stroke="rgba(156, 114, 131, 0.09)" stroke-width="2"></path><path d="M-33.5 421.43C137.48 418.52 364 201.14 614.71 203.03 865.42 204.92 809.09 610.55 938.82 667.05" stroke="rgba(156, 114, 131, 0.09)" stroke-width="2"></path><path d="M-154.67 407.99C-14.04 402.44 97.02 172.07 356.81 172.79 616.6 173.51 705.12 565.36 868.29 590.8" stroke="rgba(156, 114, 131, 0.09)" stroke-width="2"></path><path d="M-25.64 256.63C91.97 256.83 206.96 326.63 439.57 326.63 672.17 326.63 657.54 251.54 904.77 256.63 1152.01 261.72 1218.05 635.29 1369.98 662.43" stroke="rgba(156, 114, 131, 0.09)" stroke-width="2"></path><path d="M-71.96 510.84C101.74 510.41 354.31 393.04 612.8 393.24 871.29 393.44 851.77 618.46 955.18 629.56" stroke="rgba(156, 114, 131, 0.09)" stroke-width="2"></path></g><defs><mask id="SvgjsMask1025"><rect width="1440" height="560" fill="#ffffff"></rect></mask></defs></svg>